<?xml version="1.0" encoding="utf-8"?><svg version="1.1" id="Layer_1" xmlns="http://www.w3.org/2000/svg" xmlns:xlink="http://www.w3.org/1999/xlink" x="0px" y="0px" viewBox="0 0 122.88 83.8" style="enable-background:new 0 0 122.88 83.8" xml:space="preserve"><g><path d="M55.57,54.72L55.57,54.72L55.57,54.72z M18.88,32.74c1.57,0,2.85,1.27,2.85,2.84c0,1.57-1.27,2.84-2.85,2.84 c-1.57,0-2.84-1.27-2.84-2.84C16.04,34.02,17.31,32.74,18.88,32.74L18.88,32.74z M22.36,50.86c-0.61-0.42-0.76-1.26-0.34-1.87 c0.42-0.61,1.26-0.76,1.87-0.34c1.37,0.95,2.71,1.42,4.02,1.42c1.31,0,2.66-0.48,4.02-1.42c0.61-0.42,1.44-0.27,1.86,0.34 c0.42,0.61,0.27,1.44-0.34,1.86c-1.82,1.25-3.67,1.89-5.55,1.89C26.03,52.76,24.18,52.13,22.36,50.86L22.36,50.86z M37.56,32.74 c1.57,0,2.84,1.27,2.84,2.84c0,1.57-1.27,2.84-2.84,2.84c-1.57,0-2.84-1.27-2.84-2.84C34.71,34.02,35.99,32.74,37.56,32.74 L37.56,32.74z M1.18,83.8c2.28-8.21,5.29-10.69,11.4-15.75c0.93-0.77,1.93-1.59,2.89-2.41c0.02-0.02,0.04-0.03,0.06-0.05 c0.21-0.28,0.36-0.46,0.5-0.64c0.71-0.91,1.3-1.66,1.78-2.66c-3.01-1.61-5.82-4.03-8.21-7.29C7.79,55.46,6.27,55.86,5,56.2 c-1.47,0.38-2.61,0.68-3.36,0.85c-0.1,0.02-0.21,0.03-0.33,0.03C0.57,57.06-0.02,56.45,0,55.71l0.77-32.39c0-0.05,0-0.1,0.01-0.15 c0.19-1.92,0.63-3.77,1.28-5.55c0.65-1.79,1.51-3.5,2.56-5.15C7.45,7.99,11,4.81,15.16,2.78c4.14-2.02,8.88-2.89,14.15-2.76 c4.52,0.11,8.91,1.23,12.81,3.47c3.64,2.09,6.86,5.15,9.37,9.25c0.93,1.52,1.73,3.11,2.4,4.78c0.66,1.64,1.2,3.34,1.62,5.11 c0.04,0.12,0.06,0.25,0.06,0.38l0,31.72c0,0.42-0.2,0.84-0.57,1.1c-0.61,0.43-1.44,0.28-1.87-0.33c-0.61-0.86-1.39-1.59-2.32-2.2 c-0.7-0.46-1.49-0.85-2.36-1.18c-2.78,4.52-6.42,7.91-10.45,10.03c0.36,1.05,0.87,1.84,1.49,2.83l0.27,0.43 c2.12,0.96,4.19,2.18,6.14,3.99c2.03,1.87,3.91,4.34,5.57,7.75c1.07,2.18,1.87,4.41,2.55,6.66H51.2c-0.59-1.87-1.28-3.71-2.15-5.49 c-1.5-3.09-3.18-5.3-4.97-6.95c-1.49-1.38-3.07-2.37-4.7-3.17c-1.03,1.28-2.22,2.35-3.53,3.2c-2.5,1.64-5.41,2.48-8.32,2.49 c-2.91,0.01-5.82-0.83-8.3-2.55c-0.48-0.33-0.94-0.7-1.38-1.09c-0.59-0.5-1.16-1.06-1.7-1.66c-0.68,0.56-1.28,1.07-1.86,1.55 c-5.45,4.5-8.23,6.81-10.31,13.68H1.18L1.18,83.8z M34.66,59.28c0.31-0.14,0.61-0.28,0.93-0.43c0.04-0.02,0.08-0.04,0.12-0.05 c4.57-2.29,8.6-6.5,11.15-12.29c0.89-2.04,1.3-3.89,1.48-5.74c0.54-5.69,0.04-13.38,0.04-19.28c-4.67,0.72-6.62-2.4-7.48-7.06 c-9.54,8.7-20.66,10.62-33.11,6.77c0,5.84-0.47,13.18-0.01,18.83c0.14,1.71,0.47,3.43,1.2,5.35C14.37,59.5,25.43,63.24,34.66,59.28 L34.66,59.28z M20.26,63.43c-0.57,1.22-1.27,2.11-2.11,3.19c0.49,0.63,1.02,1.2,1.59,1.7c0.1,0.08,0.2,0.16,0.31,0.24 c2.2,1.7,4.79,2.58,7.37,2.62c2.58,0.04,5.17-0.76,7.39-2.42c0.87-0.65,1.69-1.44,2.42-2.35l-0.01-0.01 c-0.69-1.09-1.25-1.98-1.68-3.12C30.58,65.21,25.22,65.32,20.26,63.43L20.26,63.43z M1.63,57.05L1.63,57.05L1.63,57.05z M120.21,83.8c-0.25-0.99-0.55-1.87-0.88-2.65c-1.91-4.5-6.66-6.55-11.33-8.56c-0.79-0.34-1.58-0.68-2.4-1.06 c-0.11,0.13-0.21,0.26-0.32,0.39c-0.64,0.79-1.39,1.48-2.23,2.09c-2.32,1.68-5.31,2.64-8.4,2.79c-3.07,0.15-6.26-0.5-8.98-2.06 c-1.35-0.77-2.59-1.77-3.64-3c-0.75,0.36-1.52,0.71-2.31,1.07c-4.48,2.04-9.54,4.35-11.39,8.2c-0.41,0.85-0.73,1.78-0.98,2.78 h-2.66c0.02-0.12,0.05-0.23,0.08-0.35c0.29-1.28,0.7-2.46,1.22-3.55c2.26-4.7,7.77-7.22,12.66-9.44c1.09-0.49,2.14-0.97,3.08-1.45 c0.65-0.85,1.17-1.76,1.58-2.74c0.35-0.84,0.61-1.72,0.79-2.65c-0.99-0.59-1.93-1.28-2.83-2.07c-3.66-3.25-6.23-5.9-7.88-8.97 C71.71,49.46,71.01,46,71.1,41.2l0.26-13.91c0-0.15,0.03-0.29,0.08-0.42l-3.24-1.02c-1.25-27.3,33.43-29.12,47.97-11.74 c3.51,4.2,3.66,6.47,3.57,11.95c-0.03,1.78-0.3,3.34-1.12,3.92c-0.38,0.27-0.83,0.37-1.36,0.33v11.9c0,6.59-2.36,12.09-5.97,16.17 c-2.04,2.3-4.48,4.14-7.12,5.47c0.16,0.85,0.38,1.66,0.65,2.43c0.33,0.92,0.76,1.8,1.27,2.63c0.89,0.41,1.91,0.85,2.93,1.29 c5.14,2.21,10.38,4.47,12.7,9.94c0.45,1.07,0.84,2.28,1.16,3.66H120.21L120.21,83.8z M88.97,65.66c-0.84-0.22-1.66-0.49-2.46-0.83 c-0.2,0.85-0.46,1.66-0.79,2.45c-0.41,0.99-0.94,1.93-1.56,2.82c0.69,0.77,1.48,1.43,2.33,1.98c2.3,1.48,5.07,2.18,7.79,2.12 c2.71-0.07,5.36-0.89,7.43-2.46c0.55-0.42,1.06-0.89,1.52-1.41c0.14-0.17,0.27-0.34,0.39-0.51c-0.48-0.84-0.89-1.73-1.23-2.66 c-0.26-0.71-0.47-1.45-0.64-2.2c-2.65,0.95-5.33,1.42-7.96,1.38C92.15,66.3,90.54,66.08,88.97,65.66L88.97,65.66z M86.23,61.8 c0.86,0.45,1.74,0.82,2.64,1.11l0.04,0.01c1.66,0.51,3.39,0.76,5.13,0.76c2.79,0,5.62-0.63,8.24-1.83c2.63-1.2,5.07-2.96,7.06-5.21 c3.22-3.63,5.31-8.54,5.31-14.45V30.16h0c-0.03-0.83-0.15-1.59-0.37-2.28c-0.22-0.66-0.53-1.25-0.95-1.75 c-1.6-1.87-3.11-1.8-5.27-1.69c-0.19,0.01-0.39,0.02-0.66,0.03c-8.54,0.38-14.15,0.37-18.69-0.03c-4.19-0.37-7.48-1.05-11.3-2.06 c-0.36,0.85-0.78,1.68-1.27,2.48c-0.63,1.03-1.35,2.02-2.18,2.96L73.7,41.24c-0.08,4.33,0.53,7.4,1.98,10.1 c1.48,2.75,3.87,5.21,7.31,8.26c0.91,0.81,1.88,1.49,2.9,2.05C86.01,61.68,86.13,61.74,86.23,61.8L86.23,61.8z M88.33,53.86 c-0.6-0.39-0.77-1.2-0.38-1.8c0.39-0.6,1.2-0.77,1.8-0.38c1.48,0.96,2.91,1.48,4.26,1.5c1.31,0.02,2.61-0.45,3.89-1.44 c0.57-0.44,1.39-0.34,1.83,0.23c0.44,0.57,0.34,1.39-0.23,1.83c-1.77,1.37-3.61,2.01-5.52,1.98C92.1,55.75,90.22,55.09,88.33,53.86 L88.33,53.86z M83.47,37.55c1.55,0,2.81,1.26,2.81,2.81c0,1.55-1.26,2.81-2.81,2.81c-1.55,0-2.81-1.26-2.81-2.81 C80.66,38.81,81.92,37.55,83.47,37.55L83.47,37.55z M104.69,37.55c1.55,0,2.81,1.26,2.81,2.81c0,1.55-1.26,2.81-2.81,2.81 c-1.55,0-2.81-1.26-2.81-2.81C101.87,38.81,103.13,37.55,104.69,37.55L104.69,37.55z"/></g></svg>