<?xml version="1.0" encoding="utf-8"?><svg version="1.1" id="Layer_1" xmlns="http://www.w3.org/2000/svg" xmlns:xlink="http://www.w3.org/1999/xlink" x="0px" y="0px" viewBox="0 0 121.7 122.88" style="fill: #fff;" xml:space="preserve"><style type="text/css"><![CDATA[
	.st0{fill-rule:evenodd;clip-rule:evenodd;}
]]></style><g><path class="st0" d="M54.58,84.82c-0.5,0.34-1.18,0.38-1.74,0.05C40.65,72.56,25.6,62.93,27.74,46.12 c1.62-12.69,11.34-23.24,26.07-23.73C68.97,21.89,78.43,33.28,79.91,46C81.81,62.26,68.06,71.27,54.58,84.82L54.58,84.82z M53.61,0 c14.79,0,28.2,6.02,37.92,15.69c9.71,9.72,15.69,23.09,15.69,37.92c0,10.82-3.22,20.93-8.73,29.34l23.21,25.29l-16.01,14.63 L83.31,98.25c-8.5,5.67-18.72,8.97-29.7,8.97c-14.79,0-28.2-6.02-37.92-15.69C5.98,81.81,0,68.44,0,53.61 c0-14.79,6.02-28.2,15.7-37.92C25.41,5.98,38.78,0,53.61,0L53.61,0L53.61,0z M84.57,22.76C76.67,14.87,65.75,9.96,53.71,9.96 c-12.04,0-22.96,4.9-30.85,12.79c-7.89,7.89-12.8,18.81-12.8,30.85c0,12.04,4.9,22.96,12.8,30.85 c7.89,7.89,18.81,12.79,30.85,12.79c12.04,0,22.96-4.9,30.85-12.79c7.89-7.89,12.8-18.82,12.8-30.85 C97.36,41.57,92.46,30.65,84.57,22.76L84.57,22.76L84.57,22.76L84.57,22.76z M53.81,38.44c5.53,0,10.02,4.49,10.02,10.02 c0,5.53-4.49,10.02-10.02,10.02c-5.53,0-10.02-4.49-10.02-10.02C43.79,42.93,48.28,38.44,53.81,38.44L53.81,38.44z"/></g></svg>